<?xml version="1.0" ?><!DOCTYPE svg  PUBLIC '-//W3C//DTD SVG 1.1//EN'  'http://www.w3.org/Graphics/SVG/1.1/DTD/svg11.dtd'><svg fill="white" height="100%" version="1.1" viewBox="0 0 32 32" width="100%" xml:space="preserve" xmlns="http://www.w3.org/2000/svg" xmlns:serif="http://www.serif.com/" xmlns:xlink="http://www.w3.org/1999/xlink"><path d="M8,5l-3,0c-0.552,0 -1,0.448 -1,1c0,-0 0,2.263 0,4.012c0,1.657 1.343,3 3,3l1,0l0,0.108c0,3.529 3.027,6.515 7.001,6.949l0.014,4.937l-5.004,0c-0.552,0 -1,0.448 -1,1l-0,3.994c-0,0.552 0.448,1 1,1l11.993,0c0.552,0 1,-0.448 1,-1l0,-3.994c0,-0.552 -0.448,-1 -1,-1l-4.989,0l-0.014,-4.937c3.973,-0.435 6.999,-3.42 6.999,-6.949l0,-0.12l0.99,-0c1.657,-0 3,-1.343 3,-3l-0,-4.012c-0,-0.553 -0.448,-1 -1,-1l-2.99,-0l0,-1.004c-0,-1.657 -1.343,-3 -3,-3l-10,-0c-1.657,-0 -3,1.343 -3,3l0,1.016Zm13.004,22.006l0,1.994c0,-0 -9.993,-0 -9.993,-0c-0,-0 -0,-1.994 -0,-1.994l9.993,0Zm-10.004,-24.022l10,-0c0.552,-0 1,0.448 1,1c0,-0 0,9.136 0,9.136c0,2.807 -2.727,5.003 -6,5.003c-3.273,0 -6,-2.196 -6,-5.003c0,-0 0,-9.136 0,-9.136c0,-0.552 0.448,-1 1,-1Zm-3,4.016l-2,0c0,0 0,3.012 0,3.012c0,0.553 0.448,1 1,1l1,0l0,-4.012Zm16,-0.012l0,4.012l0.99,-0c0.552,-0 1,-0.448 1,-1c-0,-0 -0,-3.012 -0,-3.012l-1.99,-0Z"/><g id="Icon"/></svg>