<?xml version="1.0" encoding="UTF-8"?>
<svg id="_Слой_2" data-name="Слой 2" xmlns="http://www.w3.org/2000/svg" xmlns:xlink="http://www.w3.org/1999/xlink" viewBox="0 0 36.48 39.31">
  <defs>
    <linearGradient id="_Безымянный_градиент_4" data-name="Безымянный градиент 4" x1="25.73" y1="-725.47" x2="36.53" y2="-725.47" gradientTransform="translate(0 -704) scale(1 -1)" gradientUnits="userSpaceOnUse">
      <stop offset="0" stop-color="#77ccf4"/>
      <stop offset="1" stop-color="#1d2f4c"/>
    </linearGradient>
    <linearGradient id="_Безымянный_градиент_2" data-name="Безымянный градиент 2" x1="18.21" y1="-739.49" x2="18.21" y2="-704.13" gradientTransform="translate(0 -704) scale(1 -1)" gradientUnits="userSpaceOnUse">
      <stop offset=".21" stop-color="#77ccf4"/>
      <stop offset=".84" stop-color="#1d2f4c"/>
    </linearGradient>
    <linearGradient id="_Безымянный_градиент_4-2" data-name="Безымянный градиент 4" x1="14.76" y1="-726.62" x2="30.56" y2="-726.62" xlink:href="#_Безымянный_градиент_4"/>
    <linearGradient id="_Безымянный_градиент_4-3" data-name="Безымянный градиент 4" x1="0" y1="-723.65" x2="21.89" y2="-723.65" xlink:href="#_Безымянный_градиент_4"/>
  </defs>
  <g id="_Слой_2-2" data-name=" Слой 2">
    <path d="M31.73,29.27c-.36,.14-.64,.21-.64,.21h0c-.21,.07-.43,.07-.57,.14V12.66c0-.36,0-.86-.21-1.43-.14-.36-.21-.57-.36-.79-.43-.07-.93-.14-1.36-.21h-.93c-1.07,0-1.93,1.07-1.93,2.43V30.2c0,.36,.07,1,.5,1.65,.14,.21,.36,.5,.79,.72,.29,.14,.5,.14,.72,.14h.93c.14,0,.29-.07,.36-.07s.29-.07,.5-.21l.43-.43c1.36-1.79,6.23-4.51,6.23-4.51l.29-.14c-.07-.14-4.22,1.79-4.72,1.93h-.03Z" style="fill: url(#_Безымянный_градиент_4);"/>
    <path d="M18.78,.13c1,1.22,1.36,3.22,.79,5.01l-5.01,14.17v1.29c.07,4.37,.14,8.73,.21,13.1,.21,.21,.43,.36,.72,.57,.79,.57,1.57,1,2.29,1.22h.86c.21,0,.43-.07,.57-.14,2.08-.93,2.51-4.51,2.58-5.15,0-8.66,.07-17.32,.07-25.99v-.64c-.07-.72-.29-1.36-.64-1.93-.36-.5-.79-.93-1.43-1.15l-.14-.07-.72-.29h-.15Z" style="fill: url(#_Безымянный_градиент_2);"/>
    <path d="M16.84,36.14l-.5-.21c-1.29-.57-1.93-2.15-1.29-3.51L25.08,10.37c.57-1.29,2.15-1.93,3.51-1.29l.5,.21c1.29,.57,1.93,2.15,1.29,3.51l-10.02,22.05c-.64,1.36-2.22,1.93-3.51,1.29h-.01Z" style="fill: url(#_Безымянный_градиент_4-2);"/>
    <path d="M18.99,.13h0c-.07,0-.14-.07-.21-.07-1.57-.29-3.15,.5-3.87,2L.31,34.28c-.79,1.72,0,3.79,1.72,4.58l.29,.14c1.72,.79,3.79,0,4.58-1.72l7.59-16.75,7.02-15.46c.21-.5,.36-1,.29-1.5,0-.72-.21-1.36-.64-1.93-.36-.5-.79-.93-1.43-1.15l-.14-.07-.57-.29h-.03Z" style="fill: url(#_Безымянный_градиент_4-3);"/>
    <circle cx="33.09" cy="6.93" r=".86" style="fill: #77ccf4;"/>
    <circle cx="33.38" cy="10.22" r="1.29" style="fill: #77ccf4;"/>
    <circle cx="30.59" cy="8.79" r=".64" style="fill: #77ccf4;"/>
    <circle cx="29.66" cy="6.79" r=".36" style="fill: #77ccf4;"/>
  </g>
</svg>