<?xml version="1.0" encoding="UTF-8"?>
<svg id="_Слой_2" data-name="Слой 2" xmlns="http://www.w3.org/2000/svg" xmlns:xlink="http://www.w3.org/1999/xlink" viewBox="0 0 110.62 39.31">
  <defs>
    <linearGradient id="_Безымянный_градиент_4" data-name="Безымянный градиент 4" x1="25.72" y1="767.46" x2="36.52" y2="767.46" gradientTransform="translate(0 -746)" gradientUnits="userSpaceOnUse">
      <stop offset="0" stop-color="#77ccf4"/>
      <stop offset="1" stop-color="#1d2f4c"/>
    </linearGradient>
    <linearGradient id="_Безымянный_градиент_2" data-name="Безымянный градиент 2" x1="18.2" y1="781.49" x2="18.2" y2="746.13" gradientTransform="translate(0 -746)" gradientUnits="userSpaceOnUse">
      <stop offset=".21" stop-color="#77ccf4"/>
      <stop offset=".84" stop-color="#1d2f4c"/>
    </linearGradient>
    <linearGradient id="_Безымянный_градиент_4-2" data-name="Безымянный градиент 4" x1="14.76" y1="768.61" x2="30.56" y2="768.61" xlink:href="#_Безымянный_градиент_4"/>
    <linearGradient id="_Безымянный_градиент_4-3" data-name="Безымянный градиент 4" x1="0" y1="765.65" x2="21.89" y2="765.65" xlink:href="#_Безымянный_градиент_4"/>
  </defs>
  <g id="_Слой_8_копия2_" data-name="Слой 8 (копия2)">
    <g>
      <path d="M31.73,29.27c-.36,.14-.64,.21-.64,.21h0c-.21,.07-.43,.07-.57,.14V12.66c0-.36,0-.86-.21-1.43-.14-.36-.21-.57-.36-.79-.43-.07-.93-.14-1.36-.21h-.93c-1.07,0-1.93,1.07-1.93,2.43V30.2c0,.36,.07,1,.5,1.65,.14,.21,.36,.5,.79,.72,.29,.14,.5,.14,.72,.14h.93c.14,0,.29-.07,.36-.07s.29-.07,.5-.21c.07-.07,.36-.36,.43-.43,1.36-1.79,6.23-4.51,6.23-4.51l.29-.14c-.07-.14-4.22,1.79-4.72,1.93Z" style="fill: url(#_Безымянный_градиент_4);"/>
      <path d="M18.78,.13c1,1.22,1.36,3.22,.79,5.01l-5.01,14.17v1.29c.07,4.37,.14,8.73,.21,13.1,.21,.21,.43,.36,.72,.57,.79,.57,1.57,1,2.29,1.22h.86c.21,0,.43-.07,.57-.14,2.08-.93,2.51-4.51,2.58-5.15,0-8.66,.07-17.32,.07-25.99v-.64c-.07-.72-.29-1.36-.64-1.93-.36-.5-.79-.93-1.43-1.15l-.14-.07-.72-.29h-.14Z" style="fill: url(#_Безымянный_градиент_2);"/>
      <path d="M16.84,36.14l-.5-.21c-1.29-.57-1.93-2.15-1.29-3.51L25.08,10.37c.57-1.29,2.15-1.93,3.51-1.29l.5,.21c1.29,.57,1.93,2.15,1.29,3.51l-10.02,22.05c-.64,1.36-2.22,1.93-3.51,1.29Z" style="fill: url(#_Безымянный_градиент_4-2);"/>
      <path d="M18.99,.13h0c-.07,0-.14-.07-.21-.07-1.57-.29-3.15,.5-3.87,2L.31,34.28c-.79,1.72,0,3.79,1.72,4.58l.29,.14c1.72,.79,3.79,0,4.58-1.72l7.59-16.75,7.02-15.46c.21-.5,.36-1,.29-1.5,0-.72-.21-1.36-.64-1.93-.36-.5-.79-.93-1.43-1.15l-.14-.07-.57-.29Z" style="fill: url(#_Безымянный_градиент_4-3);"/>
      <circle cx="33.09" cy="6.93" r=".86" style="fill: #77ccf4;"/>
      <circle cx="33.38" cy="10.22" r="1.29" style="fill: #77ccf4;"/>
      <circle cx="30.59" cy="8.79" r=".64" style="fill: #77ccf4;"/>
      <circle cx="29.66" cy="6.79" r=".36" style="fill: #77ccf4;"/>
      <g style="isolation: isolate;">
        <path d="M44.91,11.44l2.36,6.37,2.36-6.37h1.86v8.3h-1.43v-2.72l.14-3.65-2.43,6.37h-1l-2.43-6.37,.14,3.65v2.72h-1.43V11.44h1.86Z" style="fill: #1d2f4c;"/>
        <path d="M58.3,16.45c0-1-.3-1.79-.72-2.29-.43-.5-1.06-.79-1.93-.79-.5,0-1,.14-1.44,.43-.43,.29-.78,.65-1,1.16-.22,.5-.36,1-.36,1.64v.14c0,.93,.21,1.64,.78,2.22s1.28,.86,2.15,.86c.5,0,1-.14,1.44-.36,.43-.21,.78-.49,1-.85l-.71-.71c-.43,.49-.93,.78-1.57,.78-.51,0-.86-.13-1.14-.43-.3-.28-.44-.71-.51-1.22h4.01v-.57Zm-1.36-.36h-2.65c.07-.43,.21-.79,.43-1.08,.21-.28,.57-.43,.93-.43s.71,.08,.93,.36c.21,.28,.36,.63,.36,1.07v.07Z" style="fill: #1d2f4c;"/>
        <path d="M63.09,11.01v3.15c-.43-.5-.93-.72-1.57-.72-.79,0-1.36,.28-1.79,.87-.44,.57-.65,1.35-.65,2.29,0,1,.21,1.79,.71,2.36,.43,.57,1.01,.86,1.73,.86s1.22-.21,1.64-.71l.08,.65h1.22V11.01h-1.36Zm-.08,6.88c-.21,.49-.65,.78-1.22,.78-.43,0-.79-.13-1-.49-.22-.28-.36-.78-.36-1.43,0-.71,.14-1.36,.36-1.73,.21-.35,.57-.5,1-.5,.57,0,.93,.22,1.22,.72v2.65Z" style="fill: #1d2f4c;"/>
        <path d="M66.02,13.59v6.16h1.37v-6.16h-1.37Zm1.29-2.16c-.14-.14-.35-.21-.57-.21s-.43,.06-.57,.21c-.15,.14-.22,.3-.22,.5,0,.22,0,.44,.22,.51,.14,.14,.35,.21,.57,.21s.43-.07,.57-.21c.14-.14,.22-.29,.22-.51,0-.21-.08-.36-.22-.5Z" style="fill: #1d2f4c;"/>
        <path d="M73.76,18.38v-2.8c0-.63-.22-1.14-.65-1.5-.43-.36-1.01-.57-1.72-.57-.51,0-.87,0-1.29,.21-.43,.22-.71,.44-.93,.72-.21,.29-.35,.57-.35,.93h1.36c0-.22,.06-.43,.28-.57s.49-.22,.79-.22c.35,0,.65,.08,.79,.29,.21,.21,.28,.5,.28,.78v.43h-.87c-.85,0-1.57,.14-2.07,.5-.5,.36-.72,.85-.72,1.5,0,.51,.22,.93,.58,1.29s.86,.51,1.5,.51,1.22-.29,1.64-.72c0,.28,.08,.43,.15,.58h1.42v-.08c-.14-.29-.21-.71-.21-1.29Zm-1.37-.35c-.14,.21-.35,.35-.57,.5-.29,.13-.49,.21-.79,.21-.28,0-.35,0-.57-.14-.22-.14-.28-.36-.28-.65,0-.36,.06-.64,.35-.79,.22-.21,.65-.29,1.15-.29h.71v1.16Z" style="fill: #1d2f4c;"/>
        <path d="M75.69,19.74v-5.15h-.93v-1h.93v-.57c0-.72,.21-1.22,.57-1.57s.93-.57,1.57-.57c.21,0,.5,0,.79,.07v1.07c-.14,0-.36-.07-.5-.07-.64,0-1,.36-1,1v.57h1.22v1h-1.22v5.15h-1.43v.07Z" style="fill: #1d2f4c;"/>
        <path d="M82.56,14.81c-.21,0-.36-.07-.57-.07-.64,0-1.07,.21-1.29,.72v4.22h-1.36v-6.16h1.29v.72c.36-.5,.79-.79,1.36-.79,.21,0,.36,0,.5,.07l.07,1.29Z" style="fill: #1d2f4c;"/>
        <path d="M83.5,13.59v6.16h1.36v-6.16h-1.36Zm1.28-2.16c-.14-.14-.36-.21-.57-.21-.22,0-.43,.06-.57,.21-.14,.14-.22,.3-.22,.5,0,.22,.08,.44,.22,.51,.14,.14,.35,.21,.57,.21,.21,0,.43-.07,.57-.21,.14-.14,.22-.29,.22-.51,0-.21-.08-.36-.22-.5Z" style="fill: #1d2f4c;"/>
        <path d="M91.58,16.45c0-1-.29-1.79-.71-2.29-.43-.5-1.07-.79-1.94-.79-.49,0-1,.14-1.42,.43-.44,.29-.79,.65-1.01,1.16-.22,.5-.35,1-.35,1.64v.14c0,.93,.21,1.64,.78,2.22,.59,.57,1.29,.86,2.15,.86,.5,0,1-.14,1.44-.36,.43-.21,.78-.49,1-.85l-.72-.71c-.43,.49-.93,.78-1.57,.78-.5,0-.87-.13-1.15-.43-.29-.28-.44-.71-.51-1.22h4.01v-.57Zm-1.36-.36h-2.65c.07-.43,.22-.79,.43-1.08,.21-.28,.58-.43,.93-.43s.65,.08,.93,.36c.21,.28,.36,.63,.36,1.07v.07Z" style="fill: #1d2f4c;"/>
        <path d="M93.87,13.59l.07,.72c.43-.57,1.07-.86,1.79-.86,1.29,0,1.93,.72,1.93,2.22v4.08h-1.36v-4.01c0-.36-.07-.64-.29-.86s-.43-.29-.86-.29c-.57,0-1,.29-1.22,.79v4.37h-1.36v-6.16h1.29Z" style="fill: #1d2f4c;"/>
        <path d="M102.82,11.01v3.15c-.43-.5-.93-.72-1.58-.72-.78,0-1.36,.28-1.79,.87-.43,.57-.65,1.35-.65,2.29,0,1,.3,1.79,.72,2.36,.43,.57,1,.86,1.71,.86s1.22-.21,1.66-.71l.06,.65h1.22V11.01h-1.35Zm0,6.88c-.21,.49-.64,.78-1.22,.78-.43,0-.79-.13-1-.49-.21-.28-.36-.78-.36-1.43,0-.71,.08-1.28,.36-1.73,.21-.35,.57-.5,1-.5,.58,0,.93,.22,1.22,.72v2.65Z" style="fill: #1d2f4c;"/>
        <path d="M109.12,18.03c0-.21-.07-.43-.29-.57-.21-.14-.57-.21-1-.36-.5-.07-.86-.21-1.15-.36-.72-.36-1-.79-1-1.43,0-.5,.21-1,.64-1.36,.43-.36,1-.5,1.72-.5s1.36,.21,1.79,.57,.64,.86,.64,1.43h-1.36c0-.29-.07-.5-.29-.64s-.43-.29-.79-.29c-.29,0-.57,.07-.72,.21-.21,.14-.29,.36-.29,.57s.07,.36,.29,.5,.57,.21,1.07,.36c.57,.14,1,.29,1.29,.43,.29,.14,.57,.36,.72,.57s.21,.5,.21,.86c0,.57-.21,1-.72,1.36-.43,.36-1.07,.5-1.79,.5-.5,0-.93-.07-1.36-.29-.36-.21-.72-.43-.93-.72s-.36-.64-.36-1h1.36c0,.36,.14,.57,.36,.79,.21,.14,.5,.29,.93,.29,.36,0,.64-.07,.86-.21,.07-.29,.14-.5,.14-.72Z" style="fill: #1d2f4c;"/>
      </g>
      <g style="isolation: isolate;">
        <path d="M43.26,25.26v4.8h2.08v-4.8h.43v4.8h2.08v-4.8h.43v5.15h-5.44v-5.15h.43Z" style="fill: #010101;"/>
        <path d="M50.49,28.69h-.57v1.72h-.43v-3.79h.43v1.72h.57l1.43-1.72h.5l-1.57,1.86,1.72,1.93h-.5l-1.57-1.72Z" style="fill: #010101;"/>
        <path d="M55.79,27.05c-.29-.36-.71-.49-1.22-.49-.29,0-.65,0-.87,.21-.21,.22-.43,.44-.57,.71-.14,.3-.21,.65-.21,1.01v.06c0,.59,.21,1.09,.49,1.44,.28,.36,.72,.5,1.22,.5,.27,0,.57-.08,.85-.21,.21-.22,.43-.44,.57-.72,.14-.29,.22-.65,.22-1.01v-.06c0-.57-.22-1.08-.5-1.44Zm.14,1.5c0,.44-.14,.87-.36,1.16-.21,.28-.57,.43-.92,.43s-.72-.14-.94-.43c-.21-.29-.35-.71-.35-1.16h.07v-.06c0-.43,.14-.86,.36-1.16,.22-.28,.57-.43,.93-.43,.21,0,.43,.08,.65,.22,.14,.14,.35,.35,.43,.57,.08,.22,.14,.5,.14,.79v.06Z" style="fill: #010101;"/>
        <path d="M60.08,26.62v3.79h-.43v-3.44h-1.57l-.07,1.43c0,.5-.07,.93-.14,1.22s-.21,.5-.36,.64-.36,.21-.64,.21h-.14v-.36h.14c.21,0,.43-.14,.5-.36s.14-.64,.21-1.22l.07-1.86h2.43v-.07Z" style="fill: #010101;"/>
        <path d="M63.95,29.49v-1.79c0-.36-.14-.65-.36-.86-.21-.21-.57-.28-1-.28s-.79,.13-1.07,.35c-.29,.22-.44,.5-.44,.79h.44c0-.22,.06-.43,.28-.57,.14-.14,.43-.22,.71-.22s.5,.08,.72,.22c.21,.14,.28,.35,.28,.65v.43h-.78c-.57,0-1.01,.14-1.28,.35-.3,.22-.44,.52-.44,.87s.14,.57,.36,.79c.21,.21,.5,.28,.85,.28,.22,0,.51-.08,.71-.14,.22-.07,.44-.22,.58-.43,0,.21,0,.36,.07,.49h.5v-.06c-.06-.22-.14-.51-.14-.86Zm-.36-.15c-.14,.3-.28,.43-.49,.58-.28,.14-.5,.21-.79,.21s-.5-.14-.65-.29c-.14-.14-.21-.28-.21-.5,0-.27,.07-.49,.35-.65,.29-.14,.57-.21,1.01-.21h.78v.85Z" style="fill: #010101;"/>
        <path d="M70.18,28.19c-.14-.22-.29-.36-.57-.5-.3-.07-.59-.14-.94-.14h-1.28v-1.86h2.65v-.43h-3.08v5.14h1.71c.58,0,1-.06,1.29-.35,.28-.3,.43-.65,.43-1.07,0-.3-.07-.57-.21-.79Zm-.65,1.57c-.22,.22-.51,.3-.93,.3h-1.29v-2.14h1.29c.43,0,.71,.06,.93,.28,.21,.22,.36,.43,.36,.79,0,.28-.15,.57-.36,.78Z" style="fill: #010101;"/>
        <path d="M74.33,26.62v3.79h-.43v-3.44h-1.57l-.07,1.43c0,.5-.07,.93-.14,1.22s-.21,.5-.36,.64-.36,.21-.64,.21h-.14v-.36h.14c.21,0,.43-.14,.5-.36s.14-.64,.21-1.22l.07-1.86h2.43v-.07Z" style="fill: #010101;"/>
        <path d="M78.05,27.05c-.3-.36-.72-.49-1.22-.49-.3,0-.65,0-.87,.21-.21,.22-.43,.44-.57,.71-.14,.3-.22,.65-.22,1.01v.06c0,.59,.22,1.09,.51,1.44,.28,.36,.71,.5,1.22,.5,.28,0,.58-.08,.85-.21,.22-.22,.44-.44,.58-.72,.14-.29,.22-.65,.22-1.01v-.06c0-.57-.22-1.08-.5-1.44Zm.14,1.5c0,.44-.14,.87-.36,1.16-.21,.28-.57,.43-.93,.43s-.71-.14-.93-.43c-.21-.29-.35-.71-.35-1.16h.07v-.06c0-.43,.14-.86,.36-1.16,.22-.28,.57-.43,.93-.43,.21,0,.43,.08,.65,.22,.13,.14,.35,.35,.43,.57,.07,.22,.14,.5,.14,.79v.06Z" style="fill: #010101;"/>
        <path d="M81.85,26.98h-1.93v3.44h-.43v-3.79h2.36v.36Z" style="fill: #010101;"/>
        <path d="M85.35,28.54v-.21c0-.57-.21-.93-.43-1.29-.21-.36-.64-.49-1.08-.49-.35,0-.57,.13-.85,.28-.22,.21-.43,.43-.57,.71-.15,.29-.22,.65-.22,1v.14c0,.37,.07,.65,.22,.94,.14,.28,.35,.49,.64,.65,.21,.13,.5,.21,.86,.21,.64,0,1.08-.21,1.36-.72l-.28-.21c-.14,.21-.36,.36-.51,.43-.14,.08-.36,.14-.57,.14-.36,0-.72-.14-.93-.43-.22-.29-.36-.64-.36-1.08v-.08h2.72Zm-2.29-1.28c.21-.22,.5-.36,.78-.36,.36,0,.65,0,.79,.3,.14,.27,.29,.57,.29,.92v.08h-2.29c.07-.36,.22-.72,.43-.93Z" style="fill: #010101;"/>
        <path d="M88.78,27.05c-.28-.36-.65-.49-1.07-.49-.57,0-.93,.21-1.22,.65v-.58h-.35v5.22h.43v-1.93c.29,.36,.71,.57,1.22,.57,.43,0,.79-.14,1.07-.5,.29-.35,.43-.85,.43-1.44,0-.63-.14-1.14-.51-1.5Zm-.21,2.65c-.22,.28-.5,.43-.87,.43-.21,0-.43,0-.65-.14-.21-.14-.35-.28-.43-.49v-1.79c.08-.29,.22-.43,.43-.57,.14-.14,.36-.22,.65-.22,.36,0,.65,.14,.87,.43,.21,.3,.28,.65,.28,1.16,0,.58-.08,.93-.28,1.22Z" style="fill: #010101;"/>
        <path d="M92.87,27.05c-.3-.36-.72-.49-1.22-.49-.3,0-.65,0-.87,.21-.21,.22-.43,.44-.57,.71-.14,.3-.22,.65-.22,1.01v.06c0,.59,.22,1.09,.51,1.44,.28,.36,.71,.5,1.22,.5,.28,0,.58-.08,.85-.21,.22-.22,.44-.44,.58-.72,.14-.29,.22-.65,.22-1.01v-.06c0-.57-.22-1.08-.5-1.44Zm.14,1.5c0,.44-.14,.87-.36,1.16-.22,.28-.57,.43-.93,.43s-.71-.14-.93-.43c-.21-.29-.35-.71-.35-1.16h.07v-.06c0-.43,.14-.86,.36-1.16,.22-.28,.57-.43,.93-.43,.21,0,.43,.08,.63,.22,.14,.14,.36,.35,.44,.57,.07,.22,.14,.5,.14,.79v.06Z" style="fill: #010101;"/>
        <path d="M97.17,28.84c-.14-.15-.36-.22-.57-.3,.21-.06,.43-.21,.49-.35,.08-.14,.15-.28,.15-.5,0-.36-.08-.65-.36-.79-.28-.22-.65-.28-1.15-.28h-1.44v3.86h1.66c.5,0,.85-.08,1.07-.28,.22-.22,.35-.44,.35-.79,0-.22-.06-.43-.21-.57Zm-2.43-1.79h1c.36,0,.57,.08,.79,.15,.22,.07,.28,.27,.28,.49,0,.43-.35,.65-1,.65h-1.07v-1.29Zm1.93,2.87c-.14,.14-.43,.21-.71,.21h-1.22v-1.44h1.22c.28,0,.57,.08,.71,.22,.21,.15,.28,.28,.28,.5s-.14,.35-.28,.5Z" style="fill: #010101;"/>
      </g>
    </g>
  </g>
</svg>